<svg xmlns="http://www.w3.org/2000/svg" xmlns:xlink="http://www.w3.org/1999/xlink"><symbol id="icon-arr-left" viewBox="0 0 32 14"><path d="M7.719.69h1.336C8.363 2.083 7.842 3.056 7.49 3.606c-.351.551-.972 1.39-1.863 2.514h25.91v1.775H5.627c1.207 1.266 2.361 3.077 3.463 5.432H7.736c-1.511-1.687-2.812-2.97-3.902-3.85A17.433 17.433 0 00.459 7.353v-.809c1.008-.434 2.08-1.096 3.217-1.986C4.812 3.677 6.16 2.389 7.719.689z"/></symbol><symbol id="icon-arr-right" viewBox="0 0 32 14"><path d="M24.281 13.31h-1.336c.692-1.394 1.213-2.367 1.565-2.917.351-.551.972-1.39 1.863-2.514H.463V6.104h25.91C25.166 4.838 24.012 3.027 22.91.672h1.354c1.511 1.687 2.812 2.97 3.902 3.85a17.436 17.436 0 003.375 2.126v.809c-1.008.434-2.08 1.096-3.217 1.986-1.137.88-2.484 2.168-4.043 3.867z"/></symbol><symbol id="icon-bag" viewBox="0 0 30 30"><g clip-path="url(#clip0)"><path d="M29.121 7.06h-7.947V5.315a3.553 3.553 0 00-3.549-3.549h-5.25a3.553 3.553 0 00-3.55 3.549v1.747H.88A.879.879 0 000 7.939v15.967a4.334 4.334 0 004.329 4.329H25.67A4.334 4.334 0 0030 23.906V7.94a.879.879 0 00-.879-.878zM16.994 18.53c0 1.1-.894 1.994-1.994 1.994s-1.994-.894-1.994-1.994v-1.994h3.988v1.994zm.88-3.752h-5.747a.879.879 0 00-.88.88v1.596c-5.11-1.11-8.941-4.425-9.434-8.436h26.374c-.493 4.011-4.324 7.326-9.435 8.436v-1.597a.879.879 0 00-.879-.879zm-7.29-9.464c0-.988.803-1.791 1.79-1.791h5.251c.988 0 1.791.803 1.791 1.791v1.747h-8.833V5.314zm17.658 18.592a2.574 2.574 0 01-2.57 2.571H4.328a2.574 2.574 0 01-2.571-2.57V13.35c.71 1.014 1.624 1.951 2.73 2.78 1.915 1.437 4.253 2.434 6.798 2.926A3.757 3.757 0 0015 22.282a3.757 3.757 0 003.714-3.225c2.545-.492 4.883-1.49 6.799-2.926 1.105-.829 2.02-1.766 2.73-2.78v10.555z"/></g><defs><clipPath id="clip0"><path d="M0 0h30v30H0z"/></clipPath></defs></symbol><symbol id="icon-cache" viewBox="0 0 63 63"><path d="M51.392 25.18H27.923a7.07 7.07 0 001.745-4.654 7.11 7.11 0 00-7.101-7.101 7.11 7.11 0 00-7.101 7.101c0 1.78.659 3.407 1.744 4.654h-5.602a6.147 6.147 0 00-6.14 6.14v7.244a1.228 1.228 0 002.456 0V31.32a3.688 3.688 0 013.684-3.684H45.99a3.688 3.688 0 013.683 3.684v6.63h-12.77a6.147 6.147 0 00-6.14 6.14 6.147 6.147 0 006.14 6.14h12.77v6.63a3.688 3.688 0 01-3.683 3.684H11.608a3.688 3.688 0 01-3.684-3.684v-7.254a1.228 1.228 0 10-2.456 0v7.254a6.147 6.147 0 006.14 6.14h39.784a6.147 6.147 0 006.14-6.14V31.32a6.147 6.147 0 00-6.14-6.14zm-28.825-9.3a4.65 4.65 0 014.645 4.646 4.65 4.65 0 01-4.645 4.646 4.65 4.65 0 01-4.646-4.646 4.65 4.65 0 014.646-4.645zm28.33 11.756h.495a3.688 3.688 0 013.684 3.684v6.63H52.13v-6.63a6.108 6.108 0 00-1.231-3.684zM33.22 44.09a3.688 3.688 0 013.684-3.684h18.173v7.368H36.903a3.688 3.688 0 01-3.684-3.684zm18.173 16.454h-.494a6.107 6.107 0 001.231-3.684v-6.63h2.947v6.63a3.688 3.688 0 01-3.684 3.684z"/><path d="M36.589 42.862c-.325 0-.641.131-.87.36a1.236 1.236 0 00-.358.868c0 .323.13.64.358.868.23.228.545.36.87.36.323 0 .638-.132.868-.36.228-.228.36-.545.36-.868 0-.323-.132-.64-.36-.868a1.237 1.237 0 00-.868-.36zM40.433 16.904a7.11 7.11 0 007.102-7.102 7.11 7.11 0 00-7.102-7.101 7.11 7.11 0 00-7.101 7.101 7.11 7.11 0 007.101 7.102zm0-11.747a4.65 4.65 0 014.646 4.645 4.65 4.65 0 01-4.646 4.646 4.65 4.65 0 01-4.645-4.646 4.65 4.65 0 014.645-4.645zM28.44 12.105c.678 0 1.228-.55 1.228-1.228v-9.65a1.228 1.228 0 00-2.456 0v9.65c0 .678.55 1.228 1.228 1.228zM22.546 7.859c.678 0 1.228-.55 1.228-1.228V1.228a1.228 1.228 0 10-2.456 0V6.63c0 .678.55 1.228 1.228 1.228zM6.696 45.318c.323 0 .64-.132.868-.36.229-.228.36-.545.36-.868 0-.323-.131-.64-.36-.868a1.235 1.235 0 00-.868-.36c-.323 0-.64.131-.868.36-.228.228-.36.545-.36.868 0 .323.132.64.36.868.228.228.545.36.868.36z"/></symbol><symbol id="icon-checked" viewBox="0 0 36 26.969"><path d="M10.4 26.012l-.03-.033-.03-.031-9.4-9.56a3.315 3.315 0 010-4.62 3.171 3.171 0 014.54 0l7.19 7.314L30.52.925a3.171 3.171 0 014.54 0 3.315 3.315 0 010 4.62L14.94 26.012a3.172 3.172 0 01-4.54 0z" fill-rule="evenodd"/></symbol><symbol id="icon-home" viewBox="0 0 50 50"><path d="M49.468 31.048a3.09 3.09 0 00-4.268-.825l-6.381 4.27-.019-13.292 2.217 2.077a2.524 2.524 0 001.731.684h.004c.697 0 1.37-.293 1.846-.801a2.517 2.517 0 00.683-1.815 2.517 2.517 0 00-.8-1.766l-4.203-3.937a.714.714 0 10-.976 1.042l4.203 3.937c.216.202.34.476.35.77.009.296-.097.578-.299.793-.211.225-.497.35-.806.35h-.002c-.281 0-.55-.106-.755-.299L25.305 6.603a.714.714 0 00-.977.002L7.683 22.284a1.1 1.1 0 01-.79.3 1.098 1.098 0 01-.773-.347 1.098 1.098 0 01-.3-.791c.009-.295.132-.57.347-.772L24.055 3.823c.424-.4 1.09-.4 1.515-.002l10.465 9.803a.714.714 0 10.976-1.041L26.546 2.779a2.537 2.537 0 00-3.47.005L17.35 8.178l-.002-.962c0-.303-.118-.588-.333-.802a1.128 1.128 0 00-.802-.332h-.002l-4.096.006c-.303 0-.588.119-.802.334-.214.214-.332.5-.332.803l.012 6.942-5.805 5.468a2.516 2.516 0 00-.795 1.768c-.02.677.224 1.32.688 1.813a2.517 2.517 0 001.846.796c.648 0 1.262-.243 1.735-.689l2.212-2.084.009 6.279a15.039 15.039 0 00-2.167-.16H7.495v-.427a2.609 2.609 0 00-2.606-2.605H2.605A2.608 2.608 0 000 26.93v11.183a.714.714 0 001.427 0V26.931c0-.65.529-1.178 1.178-1.178H4.89c.65 0 1.178.528 1.178 1.178v16.9A1.18 1.18 0 014.89 45.01H2.605a1.18 1.18 0 01-1.178-1.178v-1.248a.714.714 0 10-1.427 0v1.248a2.608 2.608 0 002.605 2.606H4.89a2.608 2.608 0 002.606-2.606v-.097l10.451 3.958c.02.008.04.014.06.02.453.128.908.192 1.356.192.243 0 .484-.019.722-.056l15.36-2.214.01-.002a7.52 7.52 0 003.589-1.619l9.923-8.924a3.09 3.09 0 00.502-4.04zM15.922 7.51l.003 2.01-3.507 3.304-.009-5.31 3.513-.004zm8.896.593l12.553 11.76.022 15.584-2.02 1.353-2.14-.12-.057-.569a4.52 4.52 0 00-3.631-3.996l-.013-9.272c0-.711-.58-1.29-1.292-1.29h-.001l-6.803.01c-.345 0-.669.135-.912.38a1.283 1.283 0 00-.377.913l.011 8.084a13.56 13.56 0 01-3.837-1.52 15.23 15.23 0 00-.454-.255l-.18-.094c-.093-.048-.186-.097-.28-.144-.075-.037-.15-.072-.226-.108l-.24-.113c-.082-.037-.165-.072-.248-.108-.075-.033-.15-.066-.227-.097a14.347 14.347 0 00-.739-.282 13.359 13.359 0 00-.75-.242 14.445 14.445 0 00-.526-.145c-.047-.012-.093-.026-.14-.037l-.011-7.899L24.818 8.103zm3.3 23.834l-5.97-.688-.562-.064-.012-8.195 6.531-.01.012 8.956zm19.897 2.087l-9.913 8.916a6.09 6.09 0 01-2.867 1.282l-15.353 2.213-.01.001-.01.002c-.466.074-.95.042-1.44-.092L7.495 42.208V28.786h1.22c1.04 0 2.073.12 3.079.353l.111.027c.124.03.247.06.37.093l.032.01c.123.033.245.069.367.106l.066.02c.13.04.26.082.388.125l.04.014c.268.093.533.194.795.303l.043.018c.13.055.26.111.389.17l.01.005c.125.057.248.117.371.178l.044.021c.12.06.24.123.357.186l.068.037c.12.065.238.131.356.2a14.993 14.993 0 005.513 1.915l7.996.92a3.095 3.095 0 012.645 2.765l.032.32-14.986-1.313a.714.714 0 00-.125 1.422l15.844 1.388h.011l.012.002 2.988.167.04.001.042-.003c.016 0 .032-.001.047-.003.022-.003.043-.008.063-.012l.045-.01c.023-.007.045-.016.067-.024l.036-.014a.705.705 0 00.097-.054l2.536-1.698 7.49-5.013a1.66 1.66 0 012.294.443c.467.686.35 1.62-.273 2.173z"/></symbol><symbol id="icon-loop" viewBox="0 0 58 58"><path d="M52.63 42.113a.785.785 0 01-.693-1.147 26.092 26.092 0 00.676-22.547.784.784 0 011.431-.64 27.668 27.668 0 01-.718 23.914.783.783 0 01-.696.42zM41.44 53.352a.783.783 0 01-.364-1.478 23.174 23.174 0 001.926-1.123.784.784 0 01.855 1.314c-.639.416-1.332.819-2.056 1.198a.783.783 0 01-.362.09zM29.02 56.427a27.468 27.468 0 01-19.416-8.03.784.784 0 011.108-1.109A25.904 25.904 0 0036 53.898a.784.784 0 01.423 1.51c-2.409.676-4.9 1.019-7.402 1.019zM47.717 48.744a.784.784 0 01-.5-1.388c.026-.022.048-.045.071-.068.505-.505.987-1.033 1.433-1.567a.782.782 0 011.399.42.783.783 0 01-.193.58c-.477.573-.99 1.137-1.53 1.675a2.331 2.331 0 01-.18.166.784.784 0 01-.5.182zM4.81 40.98a.784.784 0 01-.712-.455 27.437 27.437 0 0144.3-30.923.783.783 0 01-.555 1.339.784.784 0 01-.554-.23A25.87 25.87 0 005.52 39.868a.784.784 0 01-.71 1.113v-.002z"/><path d="M47.844 10.94h-5.848a.784.784 0 010-1.568h5.064V4.311a.784.784 0 111.567 0v5.848a.784.784 0 01-.783.781zM10.156 54.473a.784.784 0 01-.783-.784v-5.845a.784.784 0 01.783-.784h5.848a.784.784 0 010 1.567H10.94v5.062a.784.784 0 01-.784.784zM29 46.243A17.243 17.243 0 1146.243 29 17.263 17.263 0 0129 46.243zm0-32.919A15.676 15.676 0 1044.676 29 15.693 15.693 0 0029 13.324z"/><path d="M30.953 33.777h-3.926V37H24.79v-3.223h-2.426v-1.851h2.426V30.32h-2.426v-1.84h2.426v-8.543h6.293c1.828 0 3.277.465 4.348 1.395 1.07.93 1.605 2.188 1.605 3.773 0 1.665-.515 2.95-1.547 3.856-1.023.898-2.48 1.352-4.37 1.36h-4.09v1.605h3.925v1.851zm-3.926-5.297h4.055c1.211 0 2.133-.285 2.766-.855.633-.57.949-1.402.949-2.496 0-.992-.328-1.793-.984-2.402-.657-.618-1.544-.93-2.66-.938h-4.126v6.691z"/></symbol><symbol id="icon-money" viewBox="0 0 50 50"><path d="M49.865 29.433a.986.986 0 00-.48-.415l-3.587-1.468 3.714-2.187a.985.985 0 00-.128-1.764l-3.586-1.467 3.714-2.188a.985.985 0 00.473-.935.985.985 0 00-.61-.838l-14.118-5.783-6.955-2.955a.986.986 0 00-.355-.07l-11.33-4.61a.985.985 0 00-.856.05L.58 13.334a.985.985 0 00.098 1.803l3.665 1.517L.58 18.753a.985.985 0 00.098 1.763l3.665 1.517-3.744 2.098a.985.985 0 00.079 1.843l3.665 1.507-3.744 2.098a.985.985 0 00.099 1.764l12.738 5.408a.976.976 0 00.148.089l6.965 2.955 12.807 5.448c.288.123.617.1.886-.059l15.27-8.984a.985.985 0 00-.128-1.764l-3.586-1.468 3.714-2.187a.985.985 0 00.353-1.348zm-3.072-4.78l-13.132 7.734-11.743-4.985v-3.28l11.428 4.857a.985.985 0 00.887-.06l9.428-5.546 3.132 1.28zm.04-5.427L33.66 26.959l-10.67-4.532 12.02-8.029 11.822 4.828zm-33.88 15.2L3.29 30.318l3.32-1.862 6.354 2.7-.01 3.27zm0-5.418L3.29 24.9l3.32-1.882 6.354 2.7-.01 3.29zm0-5.418L3.29 19.49l3.32-1.861 6.354 2.699-.01 3.26zM3.29 14.073l13.024-7.32 9.447 3.872-11.9 7.94-10.571-4.492zm17.092 7.743a.985.985 0 00-.433.818v14.777l-5.015-2.127V20.22l13.054-8.7 4.857 1.97-12.463 8.325zM46.793 35.49l-13.132 7.724-11.743-4.985v-3.27l11.428 4.807c.288.122.617.1.887-.06l9.428-5.546 3.132 1.33zm-13.132 2.306L21.918 32.81v-3.27l11.438 4.856c.288.122.617.1.886-.06l9.428-5.546 3.123 1.281-13.132 7.724z"/></symbol><symbol id="icon-msg" viewBox="0 0 53 53"><path d="M42.602 49.162c-.249 0-.495-.087-.693-.255l-10.742-9.106h-23.8C3.306 39.8 0 36.477 0 32.392V11.246c0-4.085 3.305-7.408 7.368-7.408h38.264C49.696 3.838 53 7.16 53 11.246v21.146c0 4.085-3.305 7.408-7.367 7.408h-1.955v8.28a1.082 1.082 0 01-1.075 1.082zM7.368 6.002c-2.877 0-5.217 2.352-5.217 5.244v21.146c0 2.892 2.34 5.245 5.217 5.245H31.56c.253 0 .499.09.693.255l9.274 7.862v-7.035c0-.598.481-1.082 1.075-1.082h3.03c2.877 0 5.217-2.353 5.217-5.245V11.246c0-2.892-2.34-5.245-5.216-5.245H7.367z"/><path d="M43.824 15.95H9.176A1.079 1.079 0 018.1 14.87c0-.597.482-1.082 1.076-1.082h34.648c.594 0 1.076.485 1.076 1.082 0 .597-.482 1.082-1.076 1.082zM43.824 22.877H9.176A1.079 1.079 0 018.1 21.795c0-.597.482-1.082 1.076-1.082h34.648c.594 0 1.076.485 1.076 1.082 0 .597-.482 1.082-1.076 1.082zM43.824 29.803H9.176A1.079 1.079 0 018.1 28.72c0-.597.482-1.081 1.076-1.081h34.648c.594 0 1.076.484 1.076 1.081 0 .598-.482 1.082-1.076 1.082z"/></symbol><symbol id="icon-percent" viewBox="0 0 49 47"><path d="M10.935 24.81c-2.99 0-5.417-1.127-7.28-3.38-1.82-2.253-2.73-5.222-2.73-8.905 0-3.683.91-6.652 2.73-8.905C5.518 1.367 7.945.24 10.935.24s5.417 1.127 7.28 3.38c1.863 2.253 2.795 5.222 2.795 8.905 0 3.683-.932 6.652-2.795 8.905-1.863 2.253-4.29 3.38-7.28 3.38zM38.69.5h2.795L10.415 46H7.62L38.69.5zM10.935 22.6c2.297 0 4.138-.888 5.525-2.665 1.387-1.82 2.08-4.29 2.08-7.41s-.693-5.568-2.08-7.345c-1.387-1.82-3.228-2.73-5.525-2.73-2.253 0-4.073.91-5.46 2.73-1.387 1.82-2.08 4.268-2.08 7.345s.693 5.525 2.08 7.345c1.387 1.82 3.207 2.73 5.46 2.73zM38.17 46.26c-2.99 0-5.417-1.127-7.28-3.38-1.863-2.253-2.795-5.222-2.795-8.905 0-3.683.932-6.652 2.795-8.905 1.863-2.253 4.29-3.38 7.28-3.38s5.395 1.127 7.215 3.38c1.863 2.253 2.795 5.222 2.795 8.905 0 3.683-.932 6.652-2.795 8.905-1.82 2.253-4.225 3.38-7.215 3.38zm0-2.21c2.253 0 4.073-.91 5.46-2.73 1.387-1.82 2.08-4.268 2.08-7.345s-.693-5.525-2.08-7.345c-1.387-1.82-3.207-2.73-5.46-2.73-2.297 0-4.138.91-5.525 2.73-1.387 1.777-2.08 4.225-2.08 7.345s.693 5.59 2.08 7.41c1.387 1.777 3.228 2.665 5.525 2.665z"/></symbol><symbol id="icon-person" viewBox="0 0 30 31"><g clip-path="url(#clip0)"><path d="M14.89 16.665h.2c1.82-.031 3.292-.671 4.38-1.895 2.391-2.696 1.994-7.318 1.95-7.76-.155-3.31-1.72-4.895-3.013-5.634C17.444.823 16.32.525 15.065.5H14.959c-.69 0-2.044.112-3.342.851-1.305.74-2.895 2.324-3.05 5.66-.044.44-.442 5.063 1.95 7.759 1.081 1.224 2.553 1.864 4.374 1.895zm-4.057-9.498C10.833 3.833 13.646 3 15 3c1.354 0 4.167.833 4.167 4.167.011-.156 0 2.5-.834 5-.589 1.767-2.138 2.51-3.333 2.5-.03-.046-.031 0-.031 0H15c-1.367-.013-2.5-.834-3.333-2.5-.834-2.5-.834-5-.834-5z"/><path d="M27.756 24.331v-.019c0-.05-.006-.099-.006-.155-.038-1.23-.118-4.106-2.815-5.026l-.062-.018c-2.802-.715-5.131-2.33-5.156-2.349-.379-.267-1.1 0-1.384.403-.513.729-.379 1.4 0 1.667.106.074 1.907 1.704 5 2.5 1.448.515 1.617.928 1.66 2.344 0 .056.007.156.007.156.006.559 0 .833 0 1.666-1.006.572-3.999 2.5-10 2.5-5.976 0-8.987-1.928-10-2.5 0-.833-.019-.952-.006-1.511 0-.05.006-.1.006-.155.043-1.417.22-1.985 1.667-2.5 3.093-.796 4.894-2.432 5-2.5.379-.267.517-.933 0-1.667-.268-.38-1.008-.676-1.387-.409-.025.019-2.342 1.634-5.156 2.348a.784.784 0 00-.062.019c-2.696.926-2.777 3.802-2.815 5.026 0 .056 0 .105-.006.155v.019c-.006.323-.012 1.982.317 2.814a.797.797 0 00.323.392c.187.124 4.653 2.969 12.127 2.969 7.474 0 11.94-2.852 12.127-2.97a.831.831 0 00.323-.39c.31-.827.304-2.486.298-2.809z"/></g><defs><clipPath id="clip0"><path transform="translate(0 .5)" d="M0 0h30v30H0z"/></clipPath></defs></symbol><symbol id="icon-phone" viewBox="0 0 16 18"><path d="M14.93 12.534a9.657 9.657 0 01-3.384-1.01c-.53-.273-1.148-.026-1.408.562l-.735 1.666c-2.227-1.41-4.073-3.523-5.306-6.065l1.457-.838c.514-.295.731-1.003.494-1.61-.48-1.23-.779-2.53-.885-3.868C5.111.727 4.653.24 4.094.24H1.34C1.042.24.8.516.8.856c0 2.513.48 4.936 1.425 7.205 1.435 3.409 3.868 6.19 6.853 7.831 1.984 1.08 4.104 1.627 6.302 1.627.298 0 .54-.276.54-.617v-3.147c0-.639-.425-1.164-.99-1.222z"/></symbol><symbol id="icon-rise" viewBox="0 0 50 50"><path d="M47.695 48.047h-2.142v-31.1a2.628 2.628 0 00-2.625-2.625h-4.787a2.628 2.628 0 00-2.626 2.625v31.1h-5.438v-17.01a2.628 2.628 0 00-2.625-2.625h-4.788a2.628 2.628 0 00-2.625 2.626v17.009H14.6v-8.81a2.628 2.628 0 00-2.625-2.624H7.187a2.628 2.628 0 00-2.625 2.625v8.809H2.305a.977.977 0 000 1.953h45.39a.977.977 0 100-1.953zm-35.048 0H6.515v-8.81c0-.37.302-.671.672-.671h4.788c.37 0 .672.301.672.672v8.809zm15.476 0h-6.131v-17.01c0-.37.301-.671.672-.671h4.787c.371 0 .672.301.672.672v17.009zm15.477 0h-6.132v-31.1c0-.37.302-.672.673-.672h4.787c.37 0 .672.301.672.672v31.1zM45.55 1.027A.973.973 0 0044.527.002L44.48 0h-5.908a.977.977 0 100 1.953h3.648l-9.654 9.654-3.64-3.64a.977.977 0 00-1.382 0L9.988 25.522a.977.977 0 001.38 1.381l16.866-16.865 3.64 3.64a.977.977 0 001.382 0L43.6 3.335v3.302a.977.977 0 101.953 0V1.074l-.002-.047zM7.387 30.597a.977.977 0 100-1.953.977.977 0 000 1.953z"/></symbol><symbol id="icon-star-filled" viewBox="0 0 17 18"><path d="M16.976 7.05a.498.498 0 00-.402-.34l-5.27-.765-2.357-4.776a.498.498 0 00-.894 0L5.696 5.945l-5.27.766a.498.498 0 00-.276.849l3.814 3.717-.9 5.25a.498.498 0 00.722.524L8.5 14.573l4.714 2.478a.498.498 0 00.722-.525l-.9-5.249L16.85 7.56a.498.498 0 00.126-.51z"/></symbol><symbol id="icon-star" viewBox="0 0 17 16.22"><path d="M17 6.16a.51.51 0 00-.41-.34l-5.29-.77L9 .28a.5.5 0 00-.9 0L5.7 5.05l-5.27.77a.51.51 0 00-.43.34.51.51 0 00.13.51L4 10.39l-.9 5.25a.5.5 0 00.2.48.46.46 0 00.29.1.53.53 0 00.24-.06l4.67-2.48 4.71 2.48a.5.5 0 00.73-.52L13 10.39l3.81-3.72a.51.51 0 00.19-.51zm-2 .95l-3 2.88.71 4.12a.38.38 0 01-.15.38.43.43 0 01-.41 0L8.5 12.54l-3.65 1.93a.58.58 0 01-.18 0 .48.48 0 01-.23-.07.38.38 0 01-.15-.29L5 9.99 2 7.11a.39.39 0 01.21-.66l4.09-.59 1.85-3.75a.4.4 0 01.7 0l1.82 3.71 4.09.59a.39.39 0 01.24.7z"/></symbol><symbol id="icon-target" viewBox="0 0 44 44"><path d="M29.803 14.015a1.32 1.32 0 00-1.34-.316l-26.79 8.766a1.321 1.321 0 00-.134 2.46l8.569 3.882a1.321 1.321 0 101.09-2.407l-5.473-2.48 21.119-6.91-6.73 21.416-4.71-9.783a1.32 1.32 0 00-2.256-.208 1.324 1.324 0 00-.165.138L.387 41.169a1.321 1.321 0 101.869 1.868l11.573-11.573 5.353 11.119a1.322 1.322 0 002.451-.177l8.502-27.055c.148-.472.02-.988-.332-1.336z"/><path d="M24.086.576A19.851 19.851 0 005.652 12.944a1.321 1.321 0 102.445 1.002 17.218 17.218 0 0115.99-10.728c9.522 0 17.27 7.748 17.27 17.271 0 7.822-5.273 14.687-12.822 16.693a1.321 1.321 0 00.679 2.554C37.92 37.423 44 29.508 44 20.49 44 9.51 35.067.576 24.086.576z"/><path d="M28.401 31.01a1.321 1.321 0 10.952 2.466 14 14 0 006.455-5.065 13.938 13.938 0 002.52-8.02c0-7.732-6.291-14.022-14.023-14.022-5.388 0-10.364 3.147-12.675 8.017a1.321 1.321 0 102.388 1.133A11.44 11.44 0 0124.305 9.01c6.275 0 11.38 5.105 11.38 11.38 0 4.67-2.928 8.939-7.284 10.62z"/></symbol> <view id="icon-arr-left-view-dark" viewBox="0 0 32 14"/><view id="icon-arr-left-view-blue" viewBox="0 24 32 14"/><view id="icon-arr-left-view-orange" viewBox="0 48 32 14"/><view id="icon-arr-left-view-white" viewBox="0 72 32 14"/><view id="icon-arr-right-view-dark" viewBox="0 96 32 14"/><view id="icon-arr-right-view-blue" viewBox="0 120 32 14"/><view id="icon-arr-right-view-orange" viewBox="0 144 32 14"/><view id="icon-arr-right-view-white" viewBox="0 168 32 14"/><view id="icon-bag-view-dark" viewBox="0 192 30 30"/><view id="icon-bag-view-blue" viewBox="0 232 30 30"/><view id="icon-bag-view-orange" viewBox="0 272 30 30"/><view id="icon-bag-view-white" viewBox="0 312 30 30"/><view id="icon-cache-view-dark" viewBox="0 352 63 63"/><view id="icon-cache-view-blue" viewBox="0 425 63 63"/><view id="icon-cache-view-orange" viewBox="0 498 63 63"/><view id="icon-cache-view-white" viewBox="0 571 63 63"/><view id="icon-checked-view-dark" viewBox="0 644 36 26.969"/><view id="icon-checked-view-blue" viewBox="0 680.969 36 26.969"/><view id="icon-checked-view-orange" viewBox="0 717.938 36 26.969"/><view id="icon-checked-view-white" viewBox="0 754.907 36 26.969"/><view id="icon-home-view-dark" viewBox="0 791.876 50 50"/><view id="icon-home-view-blue" viewBox="0 851.876 50 50"/><view id="icon-home-view-orange" viewBox="0 911.876 50 50"/><view id="icon-home-view-white" viewBox="0 971.876 50 50"/><view id="icon-loop-view-dark" viewBox="0 1031.876 58 58"/><view id="icon-loop-view-blue" viewBox="0 1099.876 58 58"/><view id="icon-loop-view-orange" viewBox="0 1167.876 58 58"/><view id="icon-loop-view-white" viewBox="0 1235.876 58 58"/><view id="icon-money-view-dark" viewBox="0 1303.876 50 50"/><view id="icon-money-view-blue" viewBox="0 1363.876 50 50"/><view id="icon-money-view-orange" viewBox="0 1423.876 50 50"/><view id="icon-money-view-white" viewBox="0 1483.876 50 50"/><view id="icon-msg-view-dark" viewBox="0 1543.876 53 53"/><view id="icon-msg-view-blue" viewBox="0 1606.876 53 53"/><view id="icon-msg-view-orange" viewBox="0 1669.876 53 53"/><view id="icon-msg-view-white" viewBox="0 1732.876 53 53"/><view id="icon-percent-view-dark" viewBox="0 1795.876 49 47"/><view id="icon-percent-view-blue" viewBox="0 1852.876 49 47"/><view id="icon-percent-view-orange" viewBox="0 1909.876 49 47"/><view id="icon-percent-view-white" viewBox="0 1966.876 49 47"/><view id="icon-person-view-dark" viewBox="0 2023.876 30 31"/><view id="icon-person-view-blue" viewBox="0 2064.876 30 31"/><view id="icon-person-view-orange" viewBox="0 2105.876 30 31"/><view id="icon-person-view-white" viewBox="0 2146.876 30 31"/><view id="icon-phone-view-dark" viewBox="0 2187.876 16 18"/><view id="icon-phone-view-blue" viewBox="0 2215.876 16 18"/><view id="icon-phone-view-orange" viewBox="0 2243.876 16 18"/><view id="icon-phone-view-white" viewBox="0 2271.876 16 18"/><view id="icon-rise-view-dark" viewBox="0 2299.876 50 50"/><view id="icon-rise-view-blue" viewBox="0 2359.876 50 50"/><view id="icon-rise-view-orange" viewBox="0 2419.876 50 50"/><view id="icon-rise-view-white" viewBox="0 2479.876 50 50"/><view id="icon-star-filled-view-dark" viewBox="0 2539.876 17 18"/><view id="icon-star-filled-view-blue" viewBox="0 2567.876 17 18"/><view id="icon-star-filled-view-orange" viewBox="0 2595.876 17 18"/><view id="icon-star-filled-view-white" viewBox="0 2623.876 17 18"/><view id="icon-star-view-dark" viewBox="0 2651.876 17 16.22"/><view id="icon-star-view-blue" viewBox="0 2678.096 17 16.22"/><view id="icon-star-view-orange" viewBox="0 2704.3160000000003 17 16.22"/><view id="icon-star-view-white" viewBox="0 2730.536 17 16.22"/><view id="icon-target-view-dark" viewBox="0 2756.7560000000003 44 44"/><view id="icon-target-view-blue" viewBox="0 2810.7560000000003 44 44"/><view id="icon-target-view-orange" viewBox="0 2864.7560000000003 44 44"/><view id="icon-target-view-white" viewBox="0 2918.7560000000003 44 44"/> <use xlink:href="#icon-arr-left" x="0" y="0" width="32" height="14" style="fill:#2F3A56"/><use xlink:href="#icon-arr-left" x="0" y="24" width="32" height="14" style="fill:#76A2E2"/><use xlink:href="#icon-arr-left" x="0" y="48" width="32" height="14" style="fill:#FF9F46"/><use xlink:href="#icon-arr-left" x="0" y="72" width="32" height="14" style="fill:#ffffff"/><use xlink:href="#icon-arr-right" x="0" y="96" width="32" height="14" style="fill:#2F3A56"/><use xlink:href="#icon-arr-right" x="0" y="120" width="32" height="14" style="fill:#76A2E2"/><use xlink:href="#icon-arr-right" x="0" y="144" width="32" height="14" style="fill:#FF9F46"/><use xlink:href="#icon-arr-right" x="0" y="168" width="32" height="14" style="fill:#ffffff"/><use xlink:href="#icon-bag" x="0" y="192" width="30" height="30" style="fill:#2F3A56"/><use xlink:href="#icon-bag" x="0" y="232" width="30" height="30" style="fill:#76A2E2"/><use xlink:href="#icon-bag" x="0" y="272" width="30" height="30" style="fill:#FF9F46"/><use xlink:href="#icon-bag" x="0" y="312" width="30" height="30" style="fill:#ffffff"/><use xlink:href="#icon-cache" x="0" y="352" width="63" height="63" style="fill:#2F3A56"/><use xlink:href="#icon-cache" x="0" y="425" width="63" height="63" style="fill:#76A2E2"/><use xlink:href="#icon-cache" x="0" y="498" width="63" height="63" style="fill:#FF9F46"/><use xlink:href="#icon-cache" x="0" y="571" width="63" height="63" style="fill:#ffffff"/><use xlink:href="#icon-checked" x="0" y="644" width="36" height="26.969" style="fill:#2F3A56"/><use xlink:href="#icon-checked" x="0" y="680.969" width="36" height="26.969" style="fill:#76A2E2"/><use xlink:href="#icon-checked" x="0" y="717.938" width="36" height="26.969" style="fill:#FF9F46"/><use xlink:href="#icon-checked" x="0" y="754.907" width="36" height="26.969" style="fill:#ffffff"/><use xlink:href="#icon-home" x="0" y="791.876" width="50" height="50" style="fill:#2F3A56"/><use xlink:href="#icon-home" x="0" y="851.876" width="50" height="50" style="fill:#76A2E2"/><use xlink:href="#icon-home" x="0" y="911.876" width="50" height="50" style="fill:#FF9F46"/><use xlink:href="#icon-home" x="0" y="971.876" width="50" height="50" style="fill:#ffffff"/><use xlink:href="#icon-loop" x="0" y="1031.876" width="58" height="58" style="fill:#2F3A56"/><use xlink:href="#icon-loop" x="0" y="1099.876" width="58" height="58" style="fill:#76A2E2"/><use xlink:href="#icon-loop" x="0" y="1167.876" width="58" height="58" style="fill:#FF9F46"/><use xlink:href="#icon-loop" x="0" y="1235.876" width="58" height="58" style="fill:#ffffff"/><use xlink:href="#icon-money" x="0" y="1303.876" width="50" height="50" style="fill:#2F3A56"/><use xlink:href="#icon-money" x="0" y="1363.876" width="50" height="50" style="fill:#76A2E2"/><use xlink:href="#icon-money" x="0" y="1423.876" width="50" height="50" style="fill:#FF9F46"/><use xlink:href="#icon-money" x="0" y="1483.876" width="50" height="50" style="fill:#ffffff"/><use xlink:href="#icon-msg" x="0" y="1543.876" width="53" height="53" style="fill:#2F3A56"/><use xlink:href="#icon-msg" x="0" y="1606.876" width="53" height="53" style="fill:#76A2E2"/><use xlink:href="#icon-msg" x="0" y="1669.876" width="53" height="53" style="fill:#FF9F46"/><use xlink:href="#icon-msg" x="0" y="1732.876" width="53" height="53" style="fill:#ffffff"/><use xlink:href="#icon-percent" x="0" y="1795.876" width="49" height="47" style="fill:#2F3A56"/><use xlink:href="#icon-percent" x="0" y="1852.876" width="49" height="47" style="fill:#76A2E2"/><use xlink:href="#icon-percent" x="0" y="1909.876" width="49" height="47" style="fill:#FF9F46"/><use xlink:href="#icon-percent" x="0" y="1966.876" width="49" height="47" style="fill:#ffffff"/><use xlink:href="#icon-person" x="0" y="2023.876" width="30" height="31" style="fill:#2F3A56"/><use xlink:href="#icon-person" x="0" y="2064.876" width="30" height="31" style="fill:#76A2E2"/><use xlink:href="#icon-person" x="0" y="2105.876" width="30" height="31" style="fill:#FF9F46"/><use xlink:href="#icon-person" x="0" y="2146.876" width="30" height="31" style="fill:#ffffff"/><use xlink:href="#icon-phone" x="0" y="2187.876" width="16" height="18" style="fill:#2F3A56"/><use xlink:href="#icon-phone" x="0" y="2215.876" width="16" height="18" style="fill:#76A2E2"/><use xlink:href="#icon-phone" x="0" y="2243.876" width="16" height="18" style="fill:#FF9F46"/><use xlink:href="#icon-phone" x="0" y="2271.876" width="16" height="18" style="fill:#ffffff"/><use xlink:href="#icon-rise" x="0" y="2299.876" width="50" height="50" style="fill:#2F3A56"/><use xlink:href="#icon-rise" x="0" y="2359.876" width="50" height="50" style="fill:#76A2E2"/><use xlink:href="#icon-rise" x="0" y="2419.876" width="50" height="50" style="fill:#FF9F46"/><use xlink:href="#icon-rise" x="0" y="2479.876" width="50" height="50" style="fill:#ffffff"/><use xlink:href="#icon-star-filled" x="0" y="2539.876" width="17" height="18" style="fill:#2F3A56"/><use xlink:href="#icon-star-filled" x="0" y="2567.876" width="17" height="18" style="fill:#76A2E2"/><use xlink:href="#icon-star-filled" x="0" y="2595.876" width="17" height="18" style="fill:#FF9F46"/><use xlink:href="#icon-star-filled" x="0" y="2623.876" width="17" height="18" style="fill:#ffffff"/><use xlink:href="#icon-star" x="0" y="2651.876" width="17" height="16.22" style="fill:#2F3A56"/><use xlink:href="#icon-star" x="0" y="2678.096" width="17" height="16.22" style="fill:#76A2E2"/><use xlink:href="#icon-star" x="0" y="2704.3160000000003" width="17" height="16.22" style="fill:#FF9F46"/><use xlink:href="#icon-star" x="0" y="2730.536" width="17" height="16.22" style="fill:#ffffff"/><use xlink:href="#icon-target" x="0" y="2756.7560000000003" width="44" height="44" style="fill:#2F3A56"/><use xlink:href="#icon-target" x="0" y="2810.7560000000003" width="44" height="44" style="fill:#76A2E2"/><use xlink:href="#icon-target" x="0" y="2864.7560000000003" width="44" height="44" style="fill:#FF9F46"/><use xlink:href="#icon-target" x="0" y="2918.7560000000003" width="44" height="44" style="fill:#ffffff"/></svg>